<svg xmlns="http://www.w3.org/2000/svg" xmlns:xlink="http://www.w3.org/1999/xlink" version="1.1" x="0px" y="0px" viewBox="0 0 512 512" style="enable-background:new 0 0 512 512;" xml:space="preserve"><style type="text/css">
	.st0{display:none;}
	.st1{display:inline;}
	.st2{fill:none;stroke:#000000;stroke-width:0.1;stroke-miterlimit:10;}
	.st3{stroke:#000000;stroke-miterlimit:10;}
</style><g class="st0"><g class="st1"><rect x="-49" y="141" class="st2" width="512" height="512"></rect><line class="st2" x1="-49" y1="637" x2="463" y2="637"></line><line class="st2" x1="-49" y1="621" x2="463" y2="621"></line><line class="st2" x1="-49" y1="605" x2="463" y2="605"></line><line class="st2" x1="-49" y1="589" x2="463" y2="589"></line><line class="st2" x1="-49" y1="573" x2="463" y2="573"></line><line class="st2" x1="-49" y1="557" x2="463" y2="557"></line><line class="st2" x1="-49" y1="541" x2="463" y2="541"></line><line class="st2" x1="-49" y1="525" x2="463" y2="525"></line><line class="st2" x1="-49" y1="509" x2="463" y2="509"></line><line class="st2" x1="-49" y1="493" x2="463" y2="493"></line><line class="st2" x1="-49" y1="477" x2="463" y2="477"></line><line class="st2" x1="-49" y1="461" x2="463" y2="461"></line><line class="st2" x1="-49" y1="445" x2="463" y2="445"></line><line class="st2" x1="-49" y1="429" x2="463" y2="429"></line><line class="st2" x1="-49" y1="413" x2="463" y2="413"></line><line class="st2" x1="-49" y1="397" x2="463" y2="397"></line><line class="st2" x1="-49" y1="381" x2="463" y2="381"></line><line class="st2" x1="-49" y1="365" x2="463" y2="365"></line><line class="st2" x1="-49" y1="349" x2="463" y2="349"></line><line class="st2" x1="-49" y1="333" x2="463" y2="333"></line><line class="st2" x1="-49" y1="317" x2="463" y2="317"></line><line class="st2" x1="-49" y1="301" x2="463" y2="301"></line><line class="st2" x1="-49" y1="285" x2="463" y2="285"></line><line class="st2" x1="-49" y1="269" x2="463" y2="269"></line><line class="st2" x1="-49" y1="253" x2="463" y2="253"></line><line class="st2" x1="-49" y1="237" x2="463" y2="237"></line><line class="st2" x1="-49" y1="221" x2="463" y2="221"></line><line class="st2" x1="-49" y1="205" x2="463" y2="205"></line><line class="st2" x1="-49" y1="189" x2="463" y2="189"></line><line class="st2" x1="-49" y1="173" x2="463" y2="173"></line><line class="st2" x1="-49" y1="157" x2="463" y2="157"></line><line class="st2" x1="447" y1="141" x2="447" y2="653"></line><line class="st2" x1="431" y1="141" x2="431" y2="653"></line><line class="st2" x1="415" y1="141" x2="415" y2="653"></line><line class="st2" x1="399" y1="141" x2="399" y2="653"></line><line class="st2" x1="383" y1="141" x2="383" y2="653"></line><line class="st2" x1="367" y1="141" x2="367" y2="653"></line><line class="st2" x1="351" y1="141" x2="351" y2="653"></line><line class="st2" x1="335" y1="141" x2="335" y2="653"></line><line class="st2" x1="319" y1="141" x2="319" y2="653"></line><line class="st2" x1="303" y1="141" x2="303" y2="653"></line><line class="st2" x1="287" y1="141" x2="287" y2="653"></line><line class="st2" x1="271" y1="141" x2="271" y2="653"></line><line class="st2" x1="255" y1="141" x2="255" y2="653"></line><line class="st2" x1="239" y1="141" x2="239" y2="653"></line><line class="st2" x1="223" y1="141" x2="223" y2="653"></line><line class="st2" x1="207" y1="141" x2="207" y2="653"></line><line class="st2" x1="191" y1="141" x2="191" y2="653"></line><line class="st2" x1="175" y1="141" x2="175" y2="653"></line><line class="st2" x1="159" y1="141" x2="159" y2="653"></line><line class="st2" x1="143" y1="141" x2="143" y2="653"></line><line class="st2" x1="127" y1="141" x2="127" y2="653"></line><line class="st2" x1="111" y1="141" x2="111" y2="653"></line><line class="st2" x1="95" y1="141" x2="95" y2="653"></line><line class="st2" x1="79" y1="141" x2="79" y2="653"></line><line class="st2" x1="63" y1="141" x2="63" y2="653"></line><line class="st2" x1="47" y1="141" x2="47" y2="653"></line><line class="st2" x1="31" y1="141" x2="31" y2="653"></line><line class="st2" x1="15" y1="141" x2="15" y2="653"></line><line class="st2" x1="-1" y1="141" x2="-1" y2="653"></line><line class="st2" x1="-17" y1="141" x2="-17" y2="653"></line><line class="st2" x1="-33" y1="141" x2="-33" y2="653"></line></g></g><g><polygon class="st3" points="208.1,378.5 219.5,378.5 219.6,378.5 219.6,201.2 208.1,201.2  "></polygon><rect x="250.3" y="201.2" class="st3" width="11.5" height="177.3"></rect><path class="st3" d="M297.8,134.4l-9.5-17.2h-65.2l-8.8,17.2c13-0.7,27.1-1.1,41.8-1.1S284.8,133.7,297.8,134.4z"></path><rect x="292.6" y="201.2" class="st3" width="11.5" height="177.3"></rect><path class="st3" d="M256,6C117.9,6,6,117.9,6,256s111.9,250,250,250s250-111.9,250-250S394.1,6,256,6z M374.1,152.1   c0,8.2,0,15.6,0,23.7c-1.6,0.3-3.4,0.4-5.5,0.6l-28.8,213.3c-1.2,9.3-9,16.3-18.4,16.3H190.7c-9.4,0-17.3-7-18.4-16.3l-28.8-214.1   c-2.1-0.2-3.9-0.4-5.5-0.6c0-8.2,0-14.7,0-22.9c0,0,0.1,0,0.2,0c-0.2-0.4-0.3-0.8-0.3-1.2c0-6.7,25.2-12.5,62.2-15.5l16.2-29.5H295   l16.8,29.5c37.1,3,62.3,8.9,62.3,15.6c0,0.4-0.1,0.8-0.3,1.2C373.9,152.1,374,152.1,374.1,152.1z"></path></g></svg>